PathFileType  4	(X/Y/Z) /workspace/opencap-mono/results/ba8f9f72-c3c0-4cdb-a5f6-69ba924cb011/d44734bd-61ee-49a5-b9fc-11194914285b/MarkerData/d44734bd-61ee-49a5-b9fc-11194914285b_5
DataRate	CameraRate	NumFrames	NumMarkers	Units	OrigDataRate	OrigDataStartFrame	OrigNumFrames
60.0	60.0	4	63	m	60.0	1312	1499
Frame#	Time	sternum			r_shoulder			l_shoulder			r_elbow			l_elbow			r_melbow			l_melbow			r_wrist_radius			l_wrist_radius			r_wrist_ulna			l_wrist_ulna			C7			r_ASIS			l_ASIS			r_PSIS			l_PSIS			r_knee			l_knee			r_mknee			l_mknee			r_ankle			l_ankle			r_mankle			l_mankle			r_5meta			l_5meta			r_toe			l_toe			r_pinky			l_pinky			r_index			l_index			L4			T6			r_big_toe			l_big_toe			l_calc			r_calc			Nose			Neck			RShoulder			RElbow			RWrist			LShoulder			LElbow			LWrist			MidHip			RHip			RKnee			RAnkle			LHip			LKnee			LAnkle			REye			LEye			REar			LEar			LBigToe			LSmallToe			LHeel			RBigToe			RSmallToe			RHeel			
		X1	Y1	Z1	X2	Y2	Z2	X3	Y3	Z3	X4	Y4	Z4	X5	Y5	Z5	X6	Y6	Z6	X7	Y7	Z7	X8	Y8	Z8	X9	Y9	Z9	X10	Y10	Z10	X11	Y11	Z11	X12	Y12	Z12	X13	Y13	Z13	X14	Y14	Z14	X15	Y15	Z15	X16	Y16	Z16	X17	Y17	Z17	X18	Y18	Z18	X19	Y19	Z19	X20	Y20	Z20	X21	Y21	Z21	X22	Y22	Z22	X23	Y23	Z23	X24	Y24	Z24	X25	Y25	Z25	X26	Y26	Z26	X27	Y27	Z27	X28	Y28	Z28	X29	Y29	Z29	X30	Y30	Z30	X31	Y31	Z31	X32	Y32	Z32	X33	Y33	Z33	X34	Y34	Z34	X35	Y35	Z35	X36	Y36	Z36	X37	Y37	Z37	X38	Y38	Z38	X39	Y39	Z39	X40	Y40	Z40	X41	Y41	Z41	X42	Y42	Z42	X43	Y43	Z43	X44	Y44	Z44	X45	Y45	Z45	X46	Y46	Z46	X47	Y47	Z47	X48	Y48	Z48	X49	Y49	Z49	X50	Y50	Z50	X51	Y51	Z51	X52	Y52	Z52	X53	Y53	Z53	X54	Y54	Z54	X55	Y55	Z55	X56	Y56	Z56	X57	Y57	Z57	X58	Y58	Z58	X59	Y59	Z59	X60	Y60	Z60	X61	Y61	Z61	X62	Y62	Z62	X63	Y63	Z63	

1312	21.8500000	7.8970086	1.5235056	19.8821971	7.7398188	1.5318756	19.9387548	8.0109500	1.4965056	19.7563720	7.7185559	1.2149156	20.0670048	8.0923815	1.1876256	19.8915958	7.7390189	1.2042156	20.0308118	8.0478963	1.1864056	19.8997054	7.8681967	1.0455056	20.2096615	8.1571033	1.0717956	20.1224474	7.8288191	1.0365056	20.2208258	8.1693686	1.0452656	20.0930684	7.8245772	1.5076756	19.7811488	7.8380201	1.0702356	20.0719233	8.0444755	1.0634156	19.9849130	7.8273265	1.1316456	19.8937286	7.9284068	1.1297156	19.8476828	7.8045174	0.6092456	19.9678430	7.9492888	0.6452056	19.7636221	7.8901649	0.6324056	19.8976308	7.8475033	0.6575756	19.8044841	7.7423895	0.2319756	19.7323751	7.8656600	0.2278456	19.6339387	7.7895475	0.2474156	19.7041946	7.8209836	0.2221856	19.6756563	7.7979625	0.1384856	19.7621510	7.9370229	0.1808356	19.6903095	7.8625972	0.1622556	19.7713817	7.9220912	0.2010456	19.7573503	7.8461854	0.9723356	20.2808819	8.1950848	0.9892256	20.1463154	7.9099609	0.9817556	20.2629219	8.1826960	1.0210656	20.1972079	7.8885742	1.2072756	19.8995041	7.8364466	1.3783156	19.8166955	7.9081865	0.1701356	19.7709369	7.9190430	0.1992356	19.8049409	7.8136944	0.1815956	19.6022479	7.7229426	0.2265556	19.6578986	7.9353934	1.7182356	19.8310910	7.8795865	1.4369756	19.8746247	7.7368964	1.4514856	19.9603313	7.7437735	1.2095956	20.0579542	7.8507639	1.0271256	20.2085720	8.0222809	1.4224656	19.7889091	8.0753213	1.1858256	19.9106953	8.1518119	1.0517256	20.1105351	7.9082888	1.0236956	19.9477567	7.8224437	1.0246956	19.9910867	7.8390323	0.5786156	19.9376950	7.7661095	0.2356856	19.7087898	7.9941339	1.0226856	19.9044267	7.9087347	0.6121556	19.7736420	7.8334879	0.2187456	19.6515856	7.8801534	1.7387556	19.8136626	7.9264210	1.7202156	19.7697631	7.7989918	1.6798156	19.8049014	7.8979106	1.6418656	19.7164269	7.9436276	0.1989856	19.8167690	7.9704226	0.1838656	19.7423176	7.8136944	0.1815956	19.6022479	7.9240003	0.1586956	19.7843244	7.8529200	0.1183256	19.7946190	7.7271617	0.2106256	19.6511934
1313	21.8666667	7.9007137	1.5230856	19.8799306	7.7425614	1.5324056	19.9341748	8.0159634	1.4957656	19.7554879	7.7237349	1.2180256	20.0684157	8.0939983	1.1863756	19.8921511	7.7447043	1.2065356	20.0327457	8.0493712	1.1846356	19.8985064	7.8736594	1.0554256	20.2185091	8.1496287	1.0746556	20.1274028	7.8342026	1.0465456	20.2295593	8.1639695	1.0481356	20.0989916	7.8293688	1.5075256	19.7780428	7.8368290	1.0704556	20.0727030	8.0436212	1.0623556	19.9867214	7.8273883	1.1313756	19.8941877	7.9286227	1.1287656	19.8487104	7.7981310	0.6094556	19.9671048	7.9457050	0.6441856	19.7670486	7.8859910	0.6323056	19.8997670	7.8438553	0.6566856	19.8076931	7.7483121	0.2326056	19.7295648	7.8652245	0.2273856	19.6342101	7.7975975	0.2457356	19.7024536	7.8204991	0.2211456	19.6757724	7.7959223	0.1358256	19.7600190	7.9370573	0.1809856	19.6902593	7.8631300	0.1526756	19.7694344	7.9221069	0.2010056	19.7572693	7.8510028	0.9842456	20.2916575	8.1882822	0.9931156	20.1537578	7.9149120	0.9933756	20.2741680	8.1725849	1.0250856	20.2037475	7.8893426	1.2063056	19.8996307	7.8401212	1.3781156	19.8136424	7.9094363	0.1540356	19.7685406	7.9191070	0.1992456	19.8048273	7.8137451	0.1808056	19.6023047	7.7299490	0.2297656	19.6549647	7.9357310	1.7196756	19.8308401	7.8830940	1.4368656	19.8721667	7.7397081	1.4522956	19.9566441	7.7490680	1.2127356	20.0596617	7.8563143	1.0369356	20.2178467	8.0264798	1.4214356	19.7876893	8.0762358	1.1845856	19.9104377	8.1454278	1.0543856	20.1154473	7.9074560	1.0231956	19.9488800	7.8213934	1.0247656	19.9917776	7.8333005	0.5786356	19.9381558	7.7732742	0.2352156	19.7062498	7.9935145	1.0216256	19.9059916	7.9050541	0.6110256	19.7769681	7.8330747	0.2180056	19.6516908	7.8797505	1.7388056	19.8141478	7.9263007	1.7225456	19.7696188	7.8005329	1.6776056	19.8048146	7.8997902	1.6444056	19.7148098	7.9437224	0.1991056	19.8166367	7.9706418	0.1839556	19.7421550	7.8137451	0.1808056	19.6023047	7.9237325	0.1401356	19.7815624	7.8477353	0.1100556	19.7923448	7.7328233	0.2138456	19.6483276
1314	21.8833333	7.9029107	1.5213656	19.8794545	7.7428192	1.5305256	19.9293629	8.0201190	1.4944656	19.7569402	7.7264426	1.2183856	20.0687846	8.0964451	1.1840256	19.8924646	7.7485584	1.2064556	20.0339692	8.0517929	1.1816256	19.8975723	7.8767044	1.0644156	20.2274541	8.1461842	1.0742456	20.1298681	7.8371924	1.0549156	20.2377944	8.1621212	1.0480356	20.1020798	7.8336025	1.5057156	19.7761332	7.8374553	1.0683356	20.0740101	8.0451325	1.0610156	19.9901294	7.8297134	1.1296456	19.8956140	7.9313771	1.1273256	19.8512746	7.7927665	0.6087756	19.9611939	7.9461747	0.6428756	19.7699929	7.8826142	0.6311956	19.8965263	7.8444241	0.6555656	19.8108271	7.7517713	0.2304856	19.7251754	7.8651261	0.2272756	19.6343739	7.8023913	0.2417856	19.6987749	7.8203239	0.2206856	19.6757459	7.7940655	0.1321256	19.7569023	7.9370030	0.1812556	19.6903995	7.8625455	0.1442956	19.7660503	7.9219239	0.2009456	19.7574488	7.8536325	0.9945256	20.3017769	8.1858826	0.9936856	20.1576261	7.9176889	1.0045956	20.2857464	8.1676641	1.0253056	20.2070359	7.8916648	1.2042756	19.9014418	7.8438748	1.3760656	19.8123364	7.9088334	0.1413456	19.7644859	7.9189681	0.1989956	19.8049832	7.8140622	0.1806656	19.6021216	7.7342853	0.2288356	19.6505872	7.9388097	1.7173856	19.8331585	7.8851759	1.4352156	19.8705888	7.7402386	1.4506456	19.9526435	7.7520629	1.2134456	20.0607162	7.8598015	1.0455156	20.2269316	8.0301132	1.4197856	19.7885340	8.0781562	1.1819956	19.9101526	8.1429353	1.0538556	20.1178820	7.9092405	1.0215956	19.9506611	7.8226852	1.0228856	19.9925565	7.8283320	0.5776256	19.9331467	7.7775701	0.2321956	19.7020299	7.9958007	1.0203056	19.9087790	7.9054984	0.6096556	19.7799669	7.8329526	0.2177356	19.6516449	7.8829204	1.7368256	19.8163652	7.9299117	1.7215656	19.7719315	7.8039408	1.6758156	19.8051017	7.9038615	1.6447256	19.7151414	7.9436409	0.1988256	19.8167642	7.9705887	0.1840456	19.7421743	7.8140622	0.1806656	19.6021216	7.9220838	0.1260956	19.7772187	7.8437714	0.1031856	19.7892275	7.7362293	0.2129356	19.6441231
1315	21.9000000	7.9040108	1.5177956	19.8792723	7.7414895	1.5256156	19.9232701	8.0241360	1.4919956	19.7598726	7.7292670	1.2162656	20.0689982	8.1011640	1.1807556	19.8930872	7.7527610	1.2040256	20.0351786	8.0565441	1.1771956	19.8969190	7.8803318	1.0727556	20.2365934	8.1463007	1.0721556	20.1318423	7.8408710	1.0622756	20.2461852	8.1641590	1.0466256	20.1046189	7.8378585	1.5013956	19.7738918	7.8393626	1.0643556	20.0765215	8.0476814	1.0589956	19.9945067	7.8326279	1.1260756	19.8983081	7.9347051	1.1247256	19.8550222	7.7877870	0.6067256	19.9561134	7.9475170	0.6413156	19.7721305	7.8788718	0.6286656	19.8930048	7.8459872	0.6542656	19.8135090	7.7521187	0.2270256	19.7213543	7.8645982	0.2271956	19.6347015	7.8030856	0.2377156	19.6950382	7.8198039	0.2199556	19.6760330	7.7924408	0.1275656	19.7521284	7.9368562	0.1822256	19.6905959	7.8615330	0.1372056	19.7601054	7.9214299	0.2010456	19.7578694	7.8573189	1.0040856	20.3120912	8.1879665	0.9930756	20.1608708	7.9213818	1.0156956	20.2976085	8.1667877	1.0238756	20.2096726	7.8942260	1.2007756	19.9044677	7.8481324	1.3715656	19.8114640	7.9076526	0.1320656	19.7571274	7.9185852	0.1984056	19.8053784	7.8142247	0.1804056	19.6020097	7.7343085	0.2267656	19.6471775	7.9414882	1.7123456	19.8365480	7.8867794	1.4315056	19.8691849	7.7396136	1.4460156	19.9476186	7.7552493	1.2118856	20.0617387	7.8640240	1.0532956	20.2362381	8.0339404	1.4169856	19.7907380	8.0823628	1.1781856	19.9101943	8.1442758	1.0516756	20.1197871	7.9122475	1.0186656	19.9534645	7.8252418	1.0190956	19.9944327	7.8233574	0.5752556	19.9284106	7.7781338	0.2285156	19.6981000	7.9992580	1.0182256	19.9125096	7.9068789	0.6080356	19.7821884	7.8324199	0.2171556	19.6517937	7.8861863	1.7324156	19.8184950	7.9344157	1.7178856	19.7751683	7.8073863	1.6721056	19.8036520	7.9096673	1.6425256	19.7159178	7.9433280	0.1983956	19.8171038	7.9704292	0.1850756	19.7422324	7.8142247	0.1804056	19.6020097	7.9206055	0.1159756	19.7691257	7.8416588	0.0966356	19.7831338	7.7356598	0.2110256	19.6406357
